<svg width="199" height="14" viewBox="0 0 199 14" fill="none" xmlns="http://www.w3.org/2000/svg">
<path d="M5.45859 0.436L0.670588 2.074V4.396L4.97259 2.884V13H8.24859V0.436H5.45859ZM10.591 13H14.407L20.437 0.471999L9.78098 0.436V2.992H15.685L10.591 13ZM26.0597 13H32.1257L34.2137 4.63C34.4297 3.748 34.6277 2.776 34.7897 2.056H35.2217V13H38.6777V0.436H32.6117L30.5237 8.806C30.3077 9.652 30.1277 10.57 29.9477 11.38H29.5157V0.436H26.0597V13ZM53.1016 0.219999C49.3036 0.219999 46.8556 1.804 46.3516 5.314H44.8756V0.436H41.3836V13H44.8756V8.23H46.3696C46.8736 11.722 49.2856 13.27 53.1016 13.27C57.4216 13.27 59.9776 11.272 59.9776 6.736C59.9776 2.218 57.4216 0.219999 53.1016 0.219999ZM53.1016 10.336C50.4376 10.336 49.6816 8.86 49.6816 6.736C49.6816 4.594 50.3836 3.136 53.1016 3.136C55.7836 3.136 56.5396 4.594 56.5396 6.736C56.5396 8.86 55.7836 10.336 53.1016 10.336ZM70.6432 0.436V5.152H65.2972V0.436H61.8052V13H65.2972V8.104H70.6432V13H74.1352V0.436H70.6432ZM80.9703 0.436C78.0003 0.436 76.2543 1.75 76.2543 4.702C76.2543 6.844 77.2623 8.014 79.1343 8.518L76.5423 13H80.2683L82.5183 8.842H84.5343V13H88.0263V0.436H80.9703ZM81.3303 6.25C80.1243 6.25 79.7643 5.602 79.7643 4.684C79.7643 3.784 80.1243 3.136 81.3303 3.136H84.5343V6.25H81.3303ZM95.4019 9.148H102.872V6.484H95.4019V9.148ZM114.225 0.436L109.437 2.074V4.396L113.739 2.884V13H117.015V0.436H114.225ZM124.739 13.288C128.591 13.288 130.553 11.938 130.553 8.95C130.553 6.124 128.897 4.864 125.909 4.864C124.289 4.864 123.047 5.476 122.327 6.448L122.111 6.412C122.201 4.45 123.047 2.632 125.189 2.632C126.179 2.632 126.773 2.92 127.061 3.73H130.517C129.977 1.102 128.015 0.219999 125.153 0.219999C120.743 0.219999 118.907 3.28 118.907 7.24C118.907 11.164 120.563 13.288 124.739 13.288ZM124.739 10.57C123.407 10.57 122.381 10.192 122.381 8.95C122.381 7.762 123.227 7.276 124.739 7.276C126.377 7.276 127.097 7.762 127.097 8.95C127.097 10.048 126.377 10.57 124.739 10.57ZM137.111 13H143.177L145.265 4.63C145.481 3.748 145.679 2.776 145.841 2.056H146.273V13H149.729V0.436H143.663L141.575 8.806C141.359 9.652 141.179 10.57 140.999 11.38H140.567V0.436H137.111V13ZM164.153 0.219999C160.355 0.219999 157.907 1.804 157.403 5.314H155.927V0.436H152.435V13H155.927V8.23H157.421C157.925 11.722 160.337 13.27 164.153 13.27C168.473 13.27 171.029 11.272 171.029 6.736C171.029 2.218 168.473 0.219999 164.153 0.219999ZM164.153 10.336C161.489 10.336 160.733 8.86 160.733 6.736C160.733 4.594 161.435 3.136 164.153 3.136C166.835 3.136 167.591 4.594 167.591 6.736C167.591 8.86 166.835 10.336 164.153 10.336ZM172.663 13.126C176.101 13.126 176.641 11.2 176.929 6.052C176.947 5.728 176.983 4.054 177.019 3.136H181.087V13H184.615V0.436H173.851C173.815 2.182 173.815 4.09 173.707 6.052C173.527 9.4 173.275 10.282 171.673 10.282H171.457V13.09C171.655 13.09 172.033 13.126 172.663 13.126ZM191.459 0.436C188.489 0.436 186.743 1.75 186.743 4.702C186.743 6.844 187.751 8.014 189.623 8.518L187.031 13H190.757L193.007 8.842H195.023V13H198.515V0.436H191.459ZM191.819 6.25C190.613 6.25 190.253 5.602 190.253 4.684C190.253 3.784 190.613 3.136 191.819 3.136H195.023V6.25H191.819Z" fill="white"/>
</svg>
